<svg xmlns="http://www.w3.org/2000/svg" xmlns:xlink="http://www.w3.org/1999/xlink" style="position:absolute; width: 0; height: 0"><symbol viewBox="0 0 1000 873.217" id="sw-calendar"><path fill="#585868" d="M495.619 573.411l-114.318-78.785 5.119-7.431L493 560.643l143.48-227.044 7.635 4.824z"></path><path fill="#585868" d="M812 92.851c0-9.117-5.053-15.634-14.17-15.634H714V16.911C714 7.792 706.619.402 697.5.402S681 7.792 681 16.911v60.306H325V16.911C325 7.792 317.117.402 308.002.402 298.881.402 291 7.792 291 16.911v60.306h-87.492c-9.121 0-16.508 6.517-16.508 15.634v614.134c0 9.118 7.387 17.231 16.508 17.231H797.83c9.117 0 14.17-8.114 14.17-17.231V92.851zm-521 17.366v32.163c0 9.119 7.881 16.508 17.002 16.508 9.115 0 16.998-7.389 16.998-16.508v-32.163h356v32.163c0 9.119 7.381 16.508 16.5 16.508s16.5-7.389 16.5-16.508v-32.163h65v104H219v-104h72zm-72 579v-441h560v441H219z"></path><path fill="#E2E2E2" d="M999.191 847.45c0 13.075-223.49 23.673-499.191 23.673S.808 860.524.808 847.45c0-13.075 223.491-23.674 499.192-23.674s499.191 10.599 499.191 23.674z"></path></symbol><symbol viewBox="0 0 1000 873.217" id="sw-gear"><path fill="#585868" d="M557.615 723.217h-.263l-125.644-3.947c-9.284-.146-16.692-8.786-16.548-18.074l.737-48.009c-9.828-2.805-19.53-6.353-29.021-10.138l-28.567 37.982c-2.674 3.559-6.658 5.861-11.071 6.491a16.799 16.799 0 0 1-12.466-3.222l-100.534-75.393c-7.432-5.57-8.939-16.113-3.369-23.548l28.553-38.093a307.093 307.093 0 0 1-17.755-25.162l-45.55 14.042c-8.874 2.752-18.289-2.232-21.024-11.113l-37.032-120.06c-2.734-8.882 2.24-18.292 11.114-21.025l45.546-14.05c-.125-3.612-.19-7.231-.19-10.824 0-6.627.217-13.293.647-19.948l-45.229-15.441a16.832 16.832 0 0 1-9.657-8.506 16.807 16.807 0 0 1-.817-12.847l40.623-118.904a16.818 16.818 0 0 1 8.506-9.656 16.876 16.876 0 0 1 12.845-.815l45.176 15.442a306.285 306.285 0 0 1 18.358-24.498l-27.634-39.193a16.792 16.792 0 0 1-2.826-12.551 16.8 16.8 0 0 1 6.881-10.876l102.589-72.33a16.794 16.794 0 0 1 12.592-2.818 16.782 16.782 0 0 1 10.885 6.937l26.86 39.139c8.236-2.884 16.67-5.412 23.67-7.554V19.249c0-9.288 8.435-16.032 17.721-16.032h134.52c9.287 0 16.76 6.744 16.76 16.032v45.715c8 2.458 16.304 5.293 24.831 8.533l24.642-37.866a16.837 16.837 0 0 1 11.051-7.364c4.513-.86 9.214.217 12.944 2.937l101.606 73.924c7.512 5.465 9.17 15.98 3.705 23.487l-28.235 38.812a308.25 308.25 0 0 1 19.106 26.438l45.82-14.51a16.748 16.748 0 0 1 12.823 1.105 16.797 16.797 0 0 1 8.285 9.845l37.944 119.784c2.805 8.853-2.097 18.3-10.949 21.104l-45.689 14.481c.195 4.474.293 8.954.293 13.4 0 5.727-.159 11.481-.483 17.216l45.538 15.173c8.809 2.935 13.57 12.458 10.638 21.267L821.15 531.95a16.836 16.836 0 0 1-8.434 9.726 16.882 16.882 0 0 1-12.837.914l-45.324-15.107a307.527 307.527 0 0 1-16.89 23.073l28.114 38.74c5.456 7.52 3.783 18.036-3.733 23.487l-101.695 73.8c-3.609 2.621-8.111 3.731-12.516 2.995a16.794 16.794 0 0 1-10.969-6.731l-27.951-38.523a303.617 303.617 0 0 1-33.741 10.692l-.749 47.686c-.067 4.459-1.907 10.693-5.109 13.794-3.138 3.048-7.337 6.721-11.701 6.721zm-108.569-39.3l92.021 1.444.69-44.032c.121-7.875 5.697-14.615 13.407-16.203a270.048 270.048 0 0 0 52.911-16.775c7.241-3.127 15.678-.828 20.312 5.55l25.822 35.587 74.479-54.043-25.967-35.784a16.81 16.81 0 0 1 .997-20.998 273.579 273.579 0 0 0 29.244-39.954 16.787 16.787 0 0 1 19.732-7.298l41.865 13.958 29.087-87.319-42.054-14.01a16.82 16.82 0 0 1-11.412-17.635 274.706 274.706 0 0 0 1.366-27.33c0-7.961-.354-16.026-1.052-23.98a16.813 16.813 0 0 1 11.67-17.498l42.222-13.378-27.792-87.726-42.315 13.399c-7.491 2.385-15.631-.762-19.597-7.546a273.366 273.366 0 0 0-31.093-43.017 16.81 16.81 0 0 1-.995-21.023l26.101-35.875-73.681-53.61-22.522 34.626c-4.477 6.879-13.254 9.531-20.787 6.261-15.719-6.825-33.689-12.23-46.97-16.178C557.603 91.407 552 84.852 552 77.411V37.217H452v40.221c0 7.579-4.803 14.219-12.113 16.216-12.17 3.33-30.429 8.362-45.061 14.45-7.301 3.041-15.658.579-20.187-5.899l-25.112-36.032-75.022 52.901 25.55 36.223a16.814 16.814 0 0 1-1.307 21.011c-11.402 12.52-21.756 26.325-30.777 41.045-4.11 6.707-12.31 9.702-19.771 7.121l-41.718-14.259-29.746 87.08 41.759 14.26a16.824 16.824 0 0 1 11.282 17.733 276.73 276.73 0 0 0-1.616 29.787c0 7.212.289 14.502.86 21.676a16.81 16.81 0 0 1-11.806 17.398l-42.06 12.979 27.121 87.929 42.045-12.96c7.524-2.312 15.637.88 19.547 7.712a273.535 273.535 0 0 0 29.675 42.043 16.814 16.814 0 0 1 .697 21.038l-26.379 35.179 73.63 55.206 26.381-35.186c4.724-6.299 13.192-8.467 20.37-5.234a269.26 269.26 0 0 0 48.558 16.552c7.674 1.825 13.054 8.735 12.928 16.623l-.682 43.887z"></path><path fill="#585868" d="M499.664 536.416c-97.528 0-176.876-79.344-176.876-176.875s79.348-176.882 176.876-176.882 176.875 79.351 176.875 176.882c0 97.53-79.347 176.875-176.875 176.875zm0-344.561c-92.457 0-167.68 75.225-167.68 167.686 0 92.46 75.223 167.68 167.68 167.68 92.456 0 167.68-75.219 167.68-167.68 0-92.461-75.224-167.686-167.68-167.686z"></path><path fill="#585868" d="M499.664 462.766c-56.923 0-103.234-46.305-103.234-103.232s46.312-103.233 103.234-103.233c56.92 0 103.23 46.306 103.23 103.233s-46.31 103.232-103.23 103.232zm0-174.281c-39.177 0-71.049 31.876-71.049 71.049 0 39.174 31.872 71.048 71.049 71.048 39.172 0 71.042-31.875 71.042-71.048s-31.87-71.049-71.042-71.049z"></path><path fill="#E2E2E2" d="M999.192 847.45c0 13.075-223.493 23.673-499.192 23.673C224.299 871.123.808 860.524.808 847.45c0-13.075 223.491-23.674 499.192-23.674 275.699 0 499.192 10.599 499.192 23.674z"></path></symbol><symbol viewBox="0 0 306.425 1000" id="sw-left-arrow"><path fill="#D3CEB7" d="M306.425 1000L0 500 306.425 0z"></path></symbol><symbol viewBox="0 0 1000 478.98" id="sw-logo-with-name"><path d="M413.111 315.953c6.388 0 11.49-1.906 15.302-5.718 3.81-3.812 5.717-8.916 5.717-15.304 0-4.372-1.486-8.154-4.456-11.348-2.972-3.194-6.644-6.195-11.015-8.999-4.371-2.803-9.165-5.602-14.378-8.41-5.213-2.798-10.007-5.992-14.378-9.582a51.02 51.02 0 0 1-11.015-12.53c-2.972-4.765-4.456-10.511-4.456-17.237 0-4.036.839-7.818 2.521-11.35 1.684-3.532 4.231-6.644 7.652-9.334 3.418-2.69 7.708-4.82 12.865-6.391 5.155-1.568 11.208-2.354 18.161-2.354 3.922 0 7.568.589 10.931 1.766s6.222 2.439 8.576 3.782c2.801 1.573 5.269 3.366 7.399 5.382a26.936 26.936 0 0 1 2.943-3.952c1.063-1.178 2.045-2.157 2.943-2.943a30.572 30.572 0 0 1 3.363-2.354h4.205v31.953h-6.726c-1.573-5.382-3.759-10.26-6.56-14.631-2.354-3.701-5.494-7.09-9.418-10.173s-8.687-4.625-14.293-4.625c-2.13 0-4.147.448-6.053 1.343-1.908.9-3.59 2.162-5.044 3.786-1.459 1.626-2.637 3.589-3.532 5.886-.9 2.299-1.346 4.791-1.346 7.483 0 4.82 1.485 8.94 4.456 12.359 2.97 3.421 6.644 6.588 11.015 9.502 4.374 2.917 9.165 5.773 14.378 8.576s10.007 5.91 14.378 9.332c4.374 3.421 8.043 7.319 11.015 11.69 2.969 4.372 4.456 9.64 4.456 15.807 0 4.371-.953 8.55-2.859 12.525-1.906 3.985-4.765 7.488-8.576 10.513-3.812 3.025-8.635 5.409-14.462 7.146-5.831 1.736-12.612 2.605-20.347 2.605-4.936 0-9.25-.559-12.951-1.679-3.698-1.119-6.839-2.354-9.415-3.7-3.028-1.568-5.665-3.421-7.906-5.549-.897 1.568-1.877 2.919-2.943 4.039-1.066 1.119-2.046 2.075-2.941 2.856a31.257 31.257 0 0 1-3.365 2.354h-4.203v-31.95h6.726c1.681 5.491 4.036 10.421 7.063 14.793a45.545 45.545 0 0 0 4.54 5.471c1.682 1.737 3.616 3.276 5.802 4.622 2.186 1.341 4.625 2.441 7.314 3.281 2.693.841 5.662 1.261 8.917 1.261zm82.397-82.402c10.092 0 15.139 5.044 15.139 15.138v63.9l10.084 2.519v2.528h-47.084v-2.528l10.091-2.519v-73.994l-10.091-2.521v-2.523h21.861zm-12.612-21.02c0-1.906.393-3.727 1.177-5.467a15.158 15.158 0 0 1 3.112-4.54c1.286-1.289 2.801-2.326 4.541-3.11 1.737-.784 3.558-1.178 5.464-1.178s3.727.394 5.467 1.178a15.233 15.233 0 0 1 4.54 3.11 15.3 15.3 0 0 1 3.112 4.54 13.206 13.206 0 0 1 1.177 5.467c0 1.908-.396 3.727-1.177 5.464-.787 1.74-1.824 3.255-3.112 4.541a15.201 15.201 0 0 1-4.54 3.112c-1.74.787-3.561 1.177-5.467 1.177s-3.727-.391-5.464-1.177c-1.74-.784-3.255-1.821-4.541-3.112-1.291-1.286-2.329-2.801-3.112-4.541a13.128 13.128 0 0 1-1.177-5.464zm112.668 46.242c0-3.807-.396-7.083-1.178-9.833-.781-2.75-1.766-5.018-2.943-6.813-1.177-1.792-2.519-3.109-4.033-3.952-1.516-.839-3.001-1.261-4.458-1.261-2.577 0-4.82.702-6.727 2.104-1.905 1.401-3.474 2.943-4.709 4.625-1.457 2.017-2.692 4.26-3.695 6.726v62.221l10.084 2.519v2.528h-47.081v-2.528l10.088-2.519v-73.994l-10.088-2.521v-2.523h15.131c3.927 0 7.15.673 9.669 2.019 2.528 1.344 4.516 2.803 5.973 4.372 1.679 1.908 2.914 3.98 3.696 6.219a30.731 30.731 0 0 1 5.553-7.565c1.906-1.903 4.396-3.64 7.483-5.211 3.079-1.57 6.866-2.354 11.349-2.354 4.825 0 9.254.784 13.288 2.354 4.033 1.571 7.483 3.644 10.344 6.222 2.856 2.579 5.096 5.522 6.727 8.827 1.621 3.31 2.437 6.76 2.437 10.34v53.816l10.089 2.519v2.528h-21.862c-10.088 0-15.135-5.047-15.135-15.14v-43.725zm87.446-26.062c5.491 0 10.427.562 14.798 1.681 4.377 1.122 7.851 2.521 10.427 4.203a17.85 17.85 0 0 1 3.532-5.044c1.235-1.233 2.885-2.381 4.96-3.447 2.074-1.064 4.564-1.597 7.483-1.597 3.812 0 7.006 1.32 9.586 3.952 2.577 2.637 3.87 6.084 3.87 10.342 0 3.361-.897 6.029-2.691 7.988-1.795 1.964-3.981 2.943-6.563 2.943-.897 0-1.679-.024-2.354-.082a17.17 17.17 0 0 1-1.848-.251 9.589 9.589 0 0 1-1.684-.507v-20.18c-1.901 0-3.527.449-4.874 1.344-1.346.9-2.47 1.85-3.362 2.858a14.915 14.915 0 0 0-2.692 4.205c2.914 2.581 5.047 5.495 6.393 8.748 1.342 3.252 2.018 6.784 2.018 10.59 0 4.039-.758 7.734-2.269 11.102-1.515 3.358-3.787 6.277-6.813 8.743-3.03 2.471-6.87 4.4-11.521 5.8-4.652 1.404-10.118 2.104-16.396 2.104-4.265 0-8.24-.391-11.937-1.177-3.705-.782-7.011-1.795-9.925-3.03a50.483 50.483 0 0 0-3.363 1.689 13.592 13.592 0 0 0-2.354 1.843c-.676.676-1.009 1.462-1.009 2.355 0 1.684.863 3.088 2.605 4.207 1.737 1.12 5.35 1.679 10.847 1.679h31.955c8.404 0 14.99 2.413 19.757 7.232 4.762 4.82 7.146 11.662 7.146 20.52 0 4.255-.868 8.207-2.606 11.851-1.737 3.647-4.4 6.841-7.99 9.587-3.59 2.745-8.212 4.906-13.871 6.475-5.665 1.568-12.361 2.354-20.096 2.354-7.96 0-14.628-.564-20.013-1.684-5.38-1.12-9.698-2.577-12.95-4.371-3.252-1.795-5.578-3.783-6.977-5.969-1.404-2.186-2.104-4.348-2.104-6.475 0-3.812 1.148-6.866 3.449-9.163 2.297-2.301 5.351-3.449 9.163-3.449 1.013 0 1.935.053 2.778.169.84.11 1.535.221 2.1.337.67.106 1.288.223 1.848.338v23.541a54.67 54.67 0 0 0 6.393 1.684c1.906.444 4.121.84 6.645 1.178 2.519.333 5.182.502 7.989.502 7.396 0 13.587-.589 18.576-1.767 4.989-1.177 9.052-2.692 12.197-4.54 3.136-1.848 5.38-3.98 6.726-6.393 1.342-2.413 2.018-4.902 2.018-7.479a9.33 9.33 0 0 0-1.009-4.208c-.671-1.341-1.795-2.519-3.363-3.531-1.572-1.009-3.647-1.795-6.224-2.355-2.577-.559-5.775-.839-9.582-.839h-31.955c-8.854 0-15.416-1.824-19.672-5.462-4.265-3.647-6.393-7.99-6.393-13.037 0-3.363.811-6.195 2.437-8.492 1.626-2.297 3.45-4.231 5.466-5.8 2.355-1.684 5.042-3.088 8.072-4.207-4.265-2.577-7.285-5.688-9.08-9.332-1.795-3.643-2.692-7.821-2.692-12.53 0-4.038.758-7.734 2.272-11.097 1.51-3.363 3.783-6.277 6.809-8.746 3.029-2.465 6.87-4.398 11.521-5.801 4.653-1.402 10.115-2.102 16.396-2.102zm0 52.131c1.68 0 3.252-.362 4.709-1.095 1.458-.724 2.692-2.017 3.701-3.865 1.009-1.848 1.82-4.347 2.437-7.483s.927-7.122.927-11.942-.31-8.795-.927-11.941c-.617-3.134-1.428-5.63-2.437-7.481-1.008-1.851-2.243-3.136-3.701-3.867-1.457-.729-3.029-1.093-4.709-1.093-1.679 0-3.252.364-4.709 1.093-1.457.731-2.692 2.017-3.695 3.867-1.014 1.851-1.824 4.347-2.441 7.481-.619 3.146-.927 7.122-.927 11.941 0 4.82.308 8.806.927 11.942.617 3.136 1.428 5.635 2.441 7.483 1.003 1.848 2.238 3.141 3.695 3.865 1.457.733 3.03 1.095 4.709 1.095zm103.427 35.313c-14.354 0-25.505-3.951-33.466-11.855-7.961-7.903-11.941-18.802-11.941-32.708 0-6.947 1.009-13.171 3.025-18.662 2.021-5.496 4.825-10.181 8.409-14.045 3.585-3.867 7.933-6.811 13.033-8.83 5.104-2.017 10.683-3.025 16.732-3.025 6.282 0 11.913.897 16.902 2.69 4.989 1.795 9.22 4.204 12.695 7.23 3.474 3.028 6.142 6.591 7.989 10.682 1.854 4.092 2.774 8.434 2.774 13.027 0 1.573-.082 2.943-.251 4.121a30.77 30.77 0 0 1-.587 3.117c-.333 1.12-.618 2.075-.845 2.856-4.931 1.008-10.142 1.848-15.633 2.519-4.709.675-10.151 1.264-16.317 1.766-6.166.507-12.612.763-19.338.763 0 6.948.506 12.752 1.515 17.403 1.009 4.651 2.412 8.352 4.207 11.097 1.786 2.75 3.918 4.709 6.389 5.887 2.46 1.177 5.152 1.766 8.071 1.766 3.363 0 6.528-.613 9.501-1.848 2.972-1.235 5.548-2.885 7.738-4.96a24.73 24.73 0 0 0 5.211-7.063c1.284-2.634 1.931-5.298 1.931-7.99h4.207c0 3.363-.758 6.615-2.268 9.756-1.516 3.136-3.677 5.916-6.476 8.323-2.808 2.408-6.166 4.347-10.093 5.8-3.928 1.455-8.299 2.183-13.114 2.183zm-16.82-44.563c3.812 0 7.174-.086 10.093-.25 2.915-.168 5.38-.367 7.397-.588 2.354-.222 4.376-.507 6.055-.84.222-1.119.502-2.354.84-3.705.222-1.226.419-2.605.588-4.116.169-1.515.251-3.112.251-4.791 0-5.047-.396-9.278-1.177-12.699-.781-3.418-1.766-6.193-2.943-8.323-1.177-2.13-2.519-3.643-4.033-4.543-1.516-.895-3.001-1.343-4.459-1.343-1.457 0-2.942.533-4.458 1.597-1.51 1.066-2.856 3.085-4.033 6.053-1.178 2.972-2.161 7.148-2.943 12.533-.782 5.373-1.178 12.383-1.178 21.015zm123.604-38.678c-3.368 0-6.369.702-8.998 2.104-2.635 1.401-4.85 2.943-6.645 4.625a39.3 39.3 0 0 0-5.38 6.726v62.221l10.089 2.519v2.528h-47.086v-2.528l10.089-2.519v-73.994l-10.089-2.521v-2.523h15.135c3.923 0 7.151.673 9.669 2.019 2.524 1.344 4.512 2.803 5.974 4.372 1.679 1.908 2.914 3.98 3.695 6.219 1.68-2.461 3.754-4.707 6.225-6.724 2.128-1.681 4.733-3.221 7.816-4.625 3.088-1.402 6.755-2.101 11.02-2.101 6.051 0 10.533 1.401 13.452 4.202 2.914 2.806 4.371 6.729 4.371 11.775 0 3.812-1.148 6.866-3.445 9.162-2.301 2.302-5.355 3.45-9.167 3.45-.897 0-1.766-.029-2.605-.087-.839-.059-1.544-.14-2.104-.251-.786-.111-1.457-.28-2.017-.507v-23.542zm68.103 83.241c-4.039 0-7.6-.449-10.678-1.341-3.088-.902-5.752-1.963-7.99-3.194-2.581-1.351-4.767-2.914-6.562-4.709a23.81 23.81 0 0 1-2.938 3.358c-1.066 1.013-2.051 1.795-2.943 2.354a17.027 17.027 0 0 1-3.363 1.853h-4.207v-28.592h6.726c1.573 4.94 3.706 9.312 6.394 13.119 2.243 3.256 5.157 6.224 8.747 8.912 3.585 2.692 8.067 4.039 13.452 4.039 4.709 0 8.265-1.177 10.678-3.532 2.407-2.354 3.613-5.66 3.613-9.925 0-3.136-1.207-5.824-3.613-8.067-2.413-2.244-5.409-4.371-8.999-6.393-3.59-2.017-7.507-4.058-11.772-6.137-4.261-2.07-8.183-4.396-11.772-6.981-3.585-2.577-6.581-5.549-8.994-8.907-2.412-3.367-3.618-7.459-3.618-12.279 0-3.136.646-6.08 1.939-8.83 1.284-2.746 3.359-5.153 6.219-7.23 2.861-2.072 6.528-3.701 11.016-4.875 4.482-1.178 9.862-1.766 16.145-1.766 3.362 0 6.445.477 9.249 1.428 2.803.953 5.216 2.048 7.232 3.278a38.542 38.542 0 0 1 6.387 4.543 20.94 20.94 0 0 1 2.944-3.281 44.956 44.956 0 0 1 2.943-2.439 50.335 50.335 0 0 1 3.363-1.848h4.203v28.59h-6.726c-1.68-4.825-3.754-9.139-6.225-12.95-2.127-3.252-4.815-6.25-8.067-8.999-3.252-2.745-7.232-4.12-11.941-4.12-2.919 0-5.467 1.122-7.652 3.363-2.186 2.246-3.275 5.047-3.275 8.41 0 3.363 1.201 6.277 3.613 8.748 2.408 2.461 5.409 4.762 8.999 6.89 3.584 2.132 7.507 4.207 11.772 6.224 4.255 2.016 8.178 4.284 11.768 6.813 3.585 2.519 6.586 5.38 8.998 8.574 2.408 3.194 3.614 7.04 3.614 11.517 0 3.59-.671 6.871-2.017 9.843-1.347 2.972-3.532 5.549-6.558 7.729-3.029 2.191-7.01 3.87-11.941 5.047-4.938 1.174-10.989 1.763-18.163 1.763zm-588.573 42.787l-9.249-1.68v-2.519h20.18c6.391 0 11.406 1.429 15.051 4.285 3.641 2.856 6.193 6.195 7.65 10.007l25.394 64.74 14.798-43.386-12.444-31.448-9.249-1.68v-2.519h20.18c6.391 0 11.377 1.429 14.967 4.285 3.587 2.856 6.163 6.195 7.737 10.007l25.391 64.74 24.216-71.467-12.612-5.047v-2.519h31.111v2.519l-13.452 5.047-37.84 111.834h-5.044l-30.269-76.851-26.067 76.851h-5.044l-45.405-115.199zm197.594 26.913c6.726 0 12.694.897 17.905 2.688 5.214 1.795 9.615 4.289 13.2 7.483a31.184 31.184 0 0 1 8.159 11.435c1.848 4.43 2.774 9.278 2.774 14.547v45.407l10.094 2.519v2.523h-15.141c-4.034 0-7.286-.642-9.751-1.935-2.465-1.283-4.429-2.717-5.886-4.286-1.684-1.91-2.919-4.038-3.7-6.392-1.458 2.919-3.306 5.438-5.549 7.57-1.906 1.906-4.43 3.638-7.565 5.211-3.142 1.568-6.895 2.354-11.271 2.354-5.269 0-9.833-.589-13.702-1.766-3.87-1.178-7.093-2.799-9.669-4.878-2.582-2.07-4.517-4.482-5.8-7.232-1.293-2.742-1.939-5.685-1.939-8.83 0-2.576.279-4.96.845-7.141.56-2.19 1.229-4.12 2.017-5.805a37.468 37.468 0 0 1 3.024-5.553c4.71-1.12 9.698-2.124 14.967-3.021 4.487-.787 9.529-1.544 15.141-2.277a193.63 193.63 0 0 1 16.984-1.429v-5.042c0-6.499-.425-11.884-1.265-16.144s-2.046-7.624-3.614-10.088c-1.572-2.466-3.507-4.179-5.804-5.134-2.296-.946-4.902-1.429-7.816-1.429-1.235 0-2.354.087-3.368.251-1.003.174-1.9.367-2.688.589-.902.338-1.684.618-2.354.845v25.225c-.786.227-1.51.391-2.186.506a25.36 25.36 0 0 1-2.104.251c-.729.059-1.544.082-2.437.082-3.816 0-6.865-1.144-9.162-3.449-2.302-2.292-3.45-5.347-3.45-9.163 0-2.35.589-4.627 1.766-6.808 1.178-2.19 3.025-4.149 5.548-5.887 2.524-1.736 5.747-3.135 9.669-4.207 3.923-1.059 8.632-1.59 14.128-1.59zm-6.732 47.082c-.67 1.457-1.235 3.141-1.679 5.047-.448 1.572-.84 3.42-1.177 5.549-.338 2.132-.502 4.486-.502 7.063 0 6.726 1.033 11.492 3.107 14.291 2.075 2.807 4.4 4.207 6.982 4.207 2.576 0 4.791-.699 6.644-2.104 1.847-1.399 3.387-2.943 4.622-4.622 1.457-2.017 2.745-4.261 3.87-6.726v-24.386c-2.582 0-5.163.082-7.739.251-2.577.169-4.932.367-7.063.589-2.467.339-4.821.619-7.065.841zm76.519-52.968c0-10.094 5.042-15.141 15.136-15.141h11.772v23.546h23.54v4.207h-23.54v51.288c0 5.491.309 9.979.926 13.452.613 3.474 1.452 6.225 2.519 8.241 1.061 2.017 2.384 3.392 3.952 4.12 1.567.733 3.305 1.091 5.216 1.091 1.9 0 3.754-.474 5.548-1.429 1.795-.95 3.416-2.354 4.874-4.202 1.457-1.848 2.609-4.12 3.449-6.808.845-2.692 1.26-5.829 1.26-9.419h4.207c0 8.405-2.104 14.852-6.307 19.339-4.202 4.478-9.669 6.726-16.399 6.726-5.713 0-10.788-.787-15.218-2.354-4.429-1.573-8.212-3.754-11.348-6.562-3.142-2.799-5.524-6.108-7.15-9.92-1.621-3.813-2.437-7.903-2.437-12.275v-51.288h-11.769v-4.207h11.769v-8.405zm116.872 9.244c-2.915 0-5.606.618-8.067 1.854-2.471 1.235-4.604 3.392-6.394 6.475-1.794 3.083-3.198 7.286-4.202 12.612-1.013 5.327-1.515 12.082-1.515 20.265 0 7.961.502 14.542 1.515 19.758 1.004 5.216 2.408 9.336 4.202 12.356 1.79 3.03 3.923 5.162 6.394 6.393 2.461 1.235 5.152 1.849 8.067 1.849 3.368 0 6.533-.613 9.505-1.849 2.967-1.231 5.549-2.885 7.734-4.96a24.555 24.555 0 0 0 5.211-7.063c1.288-2.629 1.935-5.298 1.935-7.985h4.207c0 3.358-.763 6.61-2.272 9.751-1.515 3.142-3.672 5.916-6.475 8.323-2.804 2.413-6.167 4.348-10.089 5.8-3.928 1.457-8.299 2.19-13.119 2.19-14.354 0-25.504-3.956-33.461-11.859-7.966-7.903-11.946-18.803-11.946-32.703 0-13.905 3.98-24.81 11.946-32.713 7.957-7.903 19.106-11.85 33.461-11.85 5.495 0 10.204.53 14.127 1.591 3.923 1.072 7.146 2.471 9.669 4.207 2.523 1.738 4.372 3.697 5.549 5.887 1.178 2.181 1.766 4.458 1.766 6.808 0 3.816-1.152 6.871-3.449 9.163-2.297 2.306-5.355 3.449-9.162 3.449-.897 0-1.767-.023-2.605-.082-.845-.058-1.544-.14-2.104-.251-.786-.115-1.457-.279-2.017-.506v-25.225a70.375 70.375 0 0 1-2.354-.845 26.917 26.917 0 0 0-2.688-.589 21.128 21.128 0 0 0-3.369-.251zm105.105 24.386c0-3.813-.396-7.088-1.177-9.838-.786-2.746-1.766-5.014-2.943-6.809s-2.523-3.111-4.033-3.956c-1.516-.84-3.001-1.26-4.459-1.26-2.581 0-4.824.701-6.726 2.105-1.91 1.403-3.479 2.942-4.709 4.627-1.457 2.017-2.692 4.255-3.701 6.726v62.222l10.09 2.519v2.523h-47.087v-2.523l10.089-2.519v-107.63l-10.089-2.523v-2.519h21.862c10.094 0 15.135 5.042 15.135 15.131v26.908a25.992 25.992 0 0 1 5.216-5.38c1.79-1.35 4.063-2.609 6.809-3.782 2.745-1.177 6.026-1.766 9.838-1.766 4.819 0 9.249.781 13.287 2.354 4.034 1.568 7.479 3.638 10.34 6.219 2.861 2.582 5.101 5.524 6.727 8.825 1.626 3.31 2.437 6.76 2.437 10.345v53.816l10.094 2.519v2.523H877.24c-10.084 0-15.131-5.042-15.131-15.136v-43.721z" fill="#585868"></path><path fill="#D3CEB7" d="M158.828 0C71.104 0 0 71.106 0 158.821c0 87.716 71.104 158.825 158.828 158.825 87.709 0 158.813-71.109 158.813-158.825C317.641 71.106 246.537 0 158.828 0zm0 279.688c-66.754 0-120.865-54.108-120.865-120.868 0-66.74 54.111-120.856 120.865-120.856 66.745 0 120.861 54.116 120.861 120.856-.001 66.76-54.116 120.868-120.861 120.868z"></path><path fill="#D3CEB7" d="M158.821 161.86a3.019 3.019 0 0 1-2.143-.893 3.023 3.023 0 0 1 0-4.285l142.433-142.43a3.023 3.023 0 0 1 4.282 0 3.031 3.031 0 0 1 0 4.284l-142.43 142.432a3.018 3.018 0 0 1-2.142.892z"></path></symbol><symbol viewBox="0 0 1000 872.731" id="sw-logo"><path fill="#585868" d="M761.97 110.563l68.737-68.732a6.897 6.897 0 0 0 0-9.767c-2.689-2.694-7.059-2.694-9.758 0l-68.737 68.738C687.166 38.177 598.805-.401 501.383-.401c-199.818 0-361.809 161.981-361.809 361.789 0 199.823 161.99 361.828 361.809 361.828 199.808 0 361.784-162.005 361.784-361.828 0-97.418-38.575-185.77-101.197-250.825zM501.383 636.731c-152.064 0-275.326-123.261-275.326-275.344 0-152.035 123.262-275.313 275.326-275.313 73.536 0 140.293 28.897 189.68 75.879L496.486 356.529c-2.695 2.687-2.695 7.054 0 9.75 1.352 1.356 3.115 2.025 4.884 2.025s3.533-.669 4.884-2.025l194.572-194.563c46.986 49.383 75.885 116.134 75.885 189.672 0 152.082-123.291 275.343-275.328 275.343z"></path><path fill="#E2E2E2" d="M1000.422 847.048c0 13.075-223.493 23.673-499.193 23.673-275.701 0-499.192-10.599-499.192-23.673 0-13.075 223.491-23.674 499.192-23.674 275.701.001 499.193 10.599 499.193 23.674z"></path></symbol><symbol viewBox="0 0 1000 873.217" id="sw-people"><path fill="#585868" d="M324.318 360.725c-4.765.705-9.6 1.379-14.557 1.379-54.752 0-99.3-44.447-99.3-99.201 0-54.754 44.548-99.251 99.3-99.251 8.464 0 16.641 1.203 24.488 3.205 2.441-9.708 5.778-19.049 9.87-27.986-10.957-3.037-22.446-4.782-34.358-4.782-71.078 0-128.908 57.825-128.908 128.906 0 44.398 22.575 83.626 56.833 106.816C180.708 386.344 138 436.496 138 493.94v142.277h29V493.94c0-53.637 51.925-99.723 111.12-99.723h26.106c5.17-13 11.946-23.169 20.092-33.492zm386.205-32.603c-16.362 0-29.678-13.311-29.678-29.677 0-16.37 13.315-29.681 29.678-29.681 16.361 0 29.673 13.311 29.673 29.681 0 16.366-13.311 29.677-29.673 29.677zm0-50.9c-11.698 0-21.219 9.522-21.219 21.222 0 11.696 9.521 21.22 21.219 21.22 11.697 0 21.213-9.524 21.213-21.22 0-11.699-9.515-21.222-21.213-21.222z"></path><path fill="#585868" d="M270.602 328.122c-16.362 0-29.677-13.311-29.677-29.677 0-16.37 13.314-29.681 29.677-29.681s29.674 13.311 29.674 29.681c-.001 16.366-13.311 29.677-29.674 29.677zm0-50.9c-11.698 0-21.217 9.522-21.217 21.222 0 11.696 9.519 21.22 21.217 21.22s21.214-9.524 21.214-21.22c-.001-11.699-9.516-21.222-21.214-21.222zm488.456 88.869c31.4-23.535 52.07-60.918 52.07-103.093 0-71.081-57.716-128.905-128.794-128.905-13.964 0-27.33 2.302-39.928 6.429a162.188 162.188 0 0 1 9.533 28.014c9.615-3.113 19.857-4.835 30.493-4.835 54.751 0 99.3 44.543 99.3 99.298s-44.538 99.298-99.291 99.298c-6.084 0-12.018-1.019-17.803-2.068 7.911 10.428 14.444 20.988 19.396 33.988h52.323c54.813 0 96.643 42.388 96.643 99.723v142.277h28V493.94c0-66.997-41.442-117.533-101.942-127.849z"></path><path fill="#585868" d="M574.055 324.122c36.932-25.969 61.699-68.873 61.699-117.352 0-79.074-64.043-143.408-143.117-143.408-79.076 0-143.267 64.334-143.267 143.408 0 49.087 24.264 92.483 61.984 118.344C353.389 339.955 310 390.985 310 451.519v209.698h31V451.519c0-55.053 48.093-101.302 105.778-101.302h98.646c56.962 0 100.576 44.382 100.576 101.302v209.698h28V451.519c0-63.053-41.396-114.248-99.945-127.397zM379.122 206.77c0-62.75 51.049-113.8 113.798-113.8 62.746 0 113.794 51.05 113.794 113.8 0 62.749-51.048 113.8-113.794 113.8-62.749 0-113.798-51.051-113.798-113.8z"></path><path fill="#585868" d="M537.093 277.355c-16.362 0-29.677-13.311-29.677-29.672 0-16.364 13.314-29.674 29.677-29.674s29.674 13.31 29.674 29.674c0 16.361-13.312 29.672-29.674 29.672zm0-50.887c-11.699 0-21.218 9.516-21.218 21.215 0 11.697 9.519 21.213 21.218 21.213 11.697 0 21.213-9.516 21.213-21.213 0-11.699-9.516-21.215-21.213-21.215z"></path><path fill="#E2E2E2" d="M999.192 847.45c0 13.075-223.492 23.673-499.192 23.673C224.299 871.123.808 860.524.808 847.45c0-13.075 223.491-23.674 499.192-23.674 275.7 0 499.192 10.599 499.192 23.674z"></path></symbol><symbol viewBox="0 0 306.426 1000" id="sw-right-arrow"><path fill="#D3CEB7" d="M0 1000l306.426-500L0 0z"></path></symbol></svg>