<?xml version="1.0" encoding="utf-8"?>
<!-- Generator: Adobe Illustrator 15.1.0, SVG Export Plug-In . SVG Version: 6.00 Build 0)  -->
<!DOCTYPE svg PUBLIC "-//W3C//DTD SVG 1.1//EN" "http://www.w3.org/Graphics/SVG/1.1/DTD/svg11.dtd">
<svg version="1.1" id="Layer_1" xmlns="http://www.w3.org/2000/svg" xmlns:xlink="http://www.w3.org/1999/xlink" x="0px" y="0px"
	 width="1000px" height="478.98px" viewBox="0 0 1000 478.98" enable-background="new 0 0 1000 478.98" xml:space="preserve">
<g>
	<g>
		<path fill="#585868" d="M413.111,315.953c6.388,0,11.49-1.906,15.302-5.718c3.81-3.812,5.717-8.916,5.717-15.304
			c0-4.372-1.486-8.154-4.456-11.348c-2.972-3.194-6.644-6.195-11.015-8.999c-4.371-2.803-9.165-5.602-14.378-8.41
			c-5.213-2.798-10.007-5.992-14.378-9.582c-4.371-3.589-8.046-7.763-11.015-12.53c-2.972-4.765-4.456-10.511-4.456-17.237
			c0-4.036,0.839-7.818,2.521-11.35c1.684-3.532,4.231-6.644,7.652-9.334c3.418-2.69,7.708-4.82,12.865-6.391
			c5.155-1.568,11.208-2.354,18.161-2.354c3.922,0,7.568,0.589,10.931,1.766s6.222,2.439,8.576,3.782
			c2.801,1.573,5.269,3.366,7.399,5.382c0.897-1.455,1.877-2.774,2.943-3.952c1.063-1.178,2.045-2.157,2.943-2.943
			c1.12-0.895,2.241-1.682,3.363-2.354h4.205v31.953h-6.726c-1.573-5.382-3.759-10.26-6.56-14.631
			c-2.354-3.701-5.494-7.09-9.418-10.173s-8.687-4.625-14.293-4.625c-2.13,0-4.147,0.448-6.053,1.343
			c-1.908,0.9-3.59,2.162-5.044,3.786c-1.459,1.626-2.637,3.589-3.532,5.886c-0.9,2.299-1.346,4.791-1.346,7.483
			c0,4.82,1.485,8.94,4.456,12.359c2.97,3.421,6.644,6.588,11.015,9.502c4.374,2.917,9.165,5.773,14.378,8.576
			s10.007,5.91,14.378,9.332c4.374,3.421,8.043,7.319,11.015,11.69c2.969,4.372,4.456,9.64,4.456,15.807
			c0,4.371-0.953,8.55-2.859,12.525c-1.906,3.985-4.765,7.488-8.576,10.513c-3.812,3.025-8.635,5.409-14.462,7.146
			c-5.831,1.736-12.612,2.605-20.347,2.605c-4.936,0-9.25-0.559-12.951-1.679c-3.698-1.119-6.839-2.354-9.415-3.7
			c-3.028-1.568-5.665-3.421-7.906-5.549c-0.897,1.568-1.877,2.919-2.943,4.039c-1.066,1.119-2.046,2.075-2.941,2.856
			c-1.121,0.897-2.246,1.678-3.365,2.354h-4.203v-31.95h6.726c1.681,5.491,4.036,10.421,7.063,14.793
			c1.344,1.911,2.859,3.734,4.54,5.471c1.682,1.737,3.616,3.276,5.802,4.622c2.186,1.341,4.625,2.441,7.314,3.281
			C406.887,315.533,409.856,315.953,413.111,315.953z"/>
		<path fill="#585868" d="M495.508,233.551c10.092,0,15.139,5.044,15.139,15.138v63.9l10.084,2.519v2.528h-47.084v-2.528
			l10.091-2.519v-73.994l-10.091-2.521v-2.523H495.508z M482.896,212.531c0-1.906,0.393-3.727,1.177-5.467
			c0.783-1.737,1.821-3.25,3.112-4.54c1.286-1.289,2.801-2.326,4.541-3.11c1.737-0.784,3.558-1.178,5.464-1.178
			s3.727,0.394,5.467,1.178c1.736,0.784,3.249,1.821,4.54,3.11c1.288,1.291,2.325,2.803,3.112,4.54
			c0.781,1.74,1.177,3.561,1.177,5.467c0,1.908-0.396,3.727-1.177,5.464c-0.787,1.74-1.824,3.255-3.112,4.541
			c-1.291,1.291-2.804,2.328-4.54,3.112c-1.74,0.787-3.561,1.177-5.467,1.177s-3.727-0.391-5.464-1.177
			c-1.74-0.784-3.255-1.821-4.541-3.112c-1.291-1.286-2.329-2.801-3.112-4.541C483.289,216.258,482.896,214.439,482.896,212.531z"/>
		<path fill="#585868" d="M595.564,258.773c0-3.807-0.396-7.083-1.178-9.833c-0.781-2.75-1.766-5.018-2.943-6.813
			c-1.177-1.792-2.519-3.109-4.033-3.952c-1.516-0.839-3.001-1.261-4.458-1.261c-2.577,0-4.82,0.702-6.727,2.104
			c-1.905,1.401-3.474,2.943-4.709,4.625c-1.457,2.017-2.692,4.26-3.695,6.726v62.221l10.084,2.519v2.528h-47.081v-2.528
			l10.088-2.519v-73.994l-10.088-2.521v-2.523h15.131c3.927,0,7.15,0.673,9.669,2.019c2.528,1.344,4.516,2.803,5.973,4.372
			c1.679,1.908,2.914,3.98,3.696,6.219c1.457-2.799,3.31-5.319,5.553-7.565c1.906-1.903,4.396-3.64,7.483-5.211
			c3.079-1.57,6.866-2.354,11.349-2.354c4.825,0,9.254,0.784,13.288,2.354c4.033,1.571,7.483,3.644,10.344,6.222
			c2.856,2.579,5.096,5.522,6.727,8.827c1.621,3.31,2.437,6.76,2.437,10.34v53.816l10.089,2.519v2.528h-21.862
			c-10.088,0-15.135-5.047-15.135-15.14V258.773z"/>
		<path fill="#585868" d="M683.01,232.711c5.491,0,10.427,0.562,14.798,1.681c4.377,1.122,7.851,2.521,10.427,4.203
			c0.897-1.903,2.075-3.585,3.532-5.044c1.235-1.233,2.885-2.381,4.96-3.447c2.074-1.064,4.564-1.597,7.483-1.597
			c3.812,0,7.006,1.32,9.586,3.952c2.577,2.637,3.87,6.084,3.87,10.342c0,3.361-0.897,6.029-2.691,7.988
			c-1.795,1.964-3.981,2.943-6.563,2.943c-0.897,0-1.679-0.024-2.354-0.082c-0.671-0.058-1.288-0.14-1.848-0.251
			c-0.564-0.116-1.125-0.28-1.684-0.507v-20.18c-1.901,0-3.527,0.449-4.874,1.344c-1.346,0.9-2.47,1.85-3.362,2.858
			c-1.124,1.235-2.021,2.637-2.692,4.205c2.914,2.581,5.047,5.495,6.393,8.748c1.342,3.252,2.018,6.784,2.018,10.59
			c0,4.039-0.758,7.734-2.269,11.102c-1.515,3.358-3.787,6.277-6.813,8.743c-3.03,2.471-6.87,4.4-11.521,5.8
			c-4.652,1.404-10.118,2.104-16.396,2.104c-4.265,0-8.24-0.391-11.937-1.177c-3.705-0.782-7.011-1.795-9.925-3.03
			c-1.235,0.569-2.354,1.129-3.363,1.689c-0.896,0.56-1.679,1.177-2.354,1.843c-0.676,0.676-1.009,1.462-1.009,2.355
			c0,1.684,0.863,3.088,2.605,4.207c1.737,1.12,5.35,1.679,10.847,1.679h31.955c8.404,0,14.99,2.413,19.757,7.232
			c4.762,4.82,7.146,11.662,7.146,20.52c0,4.255-0.868,8.207-2.606,11.851c-1.737,3.647-4.4,6.841-7.99,9.587
			c-3.59,2.745-8.212,4.906-13.871,6.475c-5.665,1.568-12.361,2.354-20.096,2.354c-7.96,0-14.628-0.564-20.013-1.684
			c-5.38-1.12-9.698-2.577-12.95-4.371c-3.252-1.795-5.578-3.783-6.977-5.969c-1.404-2.186-2.104-4.348-2.104-6.475
			c0-3.812,1.148-6.866,3.449-9.163c2.297-2.301,5.351-3.449,9.163-3.449c1.013,0,1.935,0.053,2.778,0.169
			c0.84,0.11,1.535,0.221,2.1,0.337c0.67,0.106,1.288,0.223,1.848,0.338v23.541c2.021,0.671,4.149,1.23,6.393,1.684
			c1.906,0.444,4.121,0.84,6.645,1.178c2.519,0.333,5.182,0.502,7.989,0.502c7.396,0,13.587-0.589,18.576-1.767
			c4.989-1.177,9.052-2.692,12.197-4.54c3.136-1.848,5.38-3.98,6.726-6.393c1.342-2.413,2.018-4.902,2.018-7.479
			c0-1.457-0.338-2.861-1.009-4.208c-0.671-1.341-1.795-2.519-3.363-3.531c-1.572-1.009-3.647-1.795-6.224-2.355
			c-2.577-0.559-5.775-0.839-9.582-0.839h-31.955c-8.854,0-15.416-1.824-19.672-5.462c-4.265-3.647-6.393-7.99-6.393-13.037
			c0-3.363,0.811-6.195,2.437-8.492c1.626-2.297,3.45-4.231,5.466-5.8c2.355-1.684,5.042-3.088,8.072-4.207
			c-4.265-2.577-7.285-5.688-9.08-9.332c-1.795-3.643-2.692-7.821-2.692-12.53c0-4.038,0.758-7.734,2.272-11.097
			c1.51-3.363,3.783-6.277,6.809-8.746c3.029-2.465,6.87-4.398,11.521-5.801C671.267,233.411,676.729,232.711,683.01,232.711z
			 M683.01,284.842c1.68,0,3.252-0.362,4.709-1.095c1.458-0.724,2.692-2.017,3.701-3.865c1.009-1.848,1.82-4.347,2.437-7.483
			s0.927-7.122,0.927-11.942c0-4.82-0.31-8.795-0.927-11.941c-0.617-3.134-1.428-5.63-2.437-7.481
			c-1.008-1.851-2.243-3.136-3.701-3.867c-1.457-0.729-3.029-1.093-4.709-1.093c-1.679,0-3.252,0.364-4.709,1.093
			c-1.457,0.731-2.692,2.017-3.695,3.867c-1.014,1.851-1.824,4.347-2.441,7.481c-0.619,3.146-0.927,7.122-0.927,11.941
			c0,4.82,0.308,8.806,0.927,11.942c0.617,3.136,1.428,5.635,2.441,7.483c1.003,1.848,2.238,3.141,3.695,3.865
			C679.758,284.48,681.331,284.842,683.01,284.842z"/>
		<path fill="#585868" d="M786.437,320.155c-14.354,0-25.505-3.951-33.466-11.855c-7.961-7.903-11.941-18.802-11.941-32.708
			c0-6.947,1.009-13.171,3.025-18.662c2.021-5.496,4.825-10.181,8.409-14.045c3.585-3.867,7.933-6.811,13.033-8.83
			c5.104-2.017,10.683-3.025,16.732-3.025c6.282,0,11.913,0.897,16.902,2.69c4.989,1.795,9.22,4.204,12.695,7.23
			c3.474,3.028,6.142,6.591,7.989,10.682c1.854,4.092,2.774,8.434,2.774,13.027c0,1.573-0.082,2.943-0.251,4.121
			c-0.168,1.177-0.361,2.219-0.587,3.117c-0.333,1.12-0.618,2.075-0.845,2.856c-4.931,1.008-10.142,1.848-15.633,2.519
			c-4.709,0.675-10.151,1.264-16.317,1.766c-6.166,0.507-12.612,0.763-19.338,0.763c0,6.948,0.506,12.752,1.515,17.403
			c1.009,4.651,2.412,8.352,4.207,11.097c1.786,2.75,3.918,4.709,6.389,5.887c2.46,1.177,5.152,1.766,8.071,1.766
			c3.363,0,6.528-0.613,9.501-1.848c2.972-1.235,5.548-2.885,7.738-4.96c2.182-2.075,3.918-4.43,5.211-7.063
			c1.284-2.634,1.931-5.298,1.931-7.99h4.207c0,3.363-0.758,6.615-2.268,9.756c-1.516,3.136-3.677,5.916-6.476,8.323
			c-2.808,2.408-6.166,4.347-10.093,5.8C795.623,319.427,791.252,320.155,786.437,320.155z M769.617,275.592
			c3.812,0,7.174-0.086,10.093-0.25c2.915-0.168,5.38-0.367,7.397-0.588c2.354-0.222,4.376-0.507,6.055-0.84
			c0.222-1.119,0.502-2.354,0.84-3.705c0.222-1.226,0.419-2.605,0.588-4.116c0.169-1.515,0.251-3.112,0.251-4.791
			c0-5.047-0.396-9.278-1.177-12.699c-0.781-3.418-1.766-6.193-2.943-8.323c-1.177-2.13-2.519-3.643-4.033-4.543
			c-1.516-0.895-3.001-1.343-4.459-1.343c-1.457,0-2.942,0.533-4.458,1.597c-1.51,1.066-2.856,3.085-4.033,6.053
			c-1.178,2.972-2.161,7.148-2.943,12.533C770.013,259.95,769.617,266.96,769.617,275.592z"/>
		<path fill="#585868" d="M893.221,236.914c-3.368,0-6.369,0.702-8.998,2.104c-2.635,1.401-4.85,2.943-6.645,4.625
			c-2.017,2.017-3.812,4.26-5.38,6.726v62.221l10.089,2.519v2.528h-47.086v-2.528l10.089-2.519v-73.994l-10.089-2.521v-2.523h15.135
			c3.923,0,7.151,0.673,9.669,2.019c2.524,1.344,4.512,2.803,5.974,4.372c1.679,1.908,2.914,3.98,3.695,6.219
			c1.68-2.461,3.754-4.707,6.225-6.724c2.128-1.681,4.733-3.221,7.816-4.625c3.088-1.402,6.755-2.101,11.02-2.101
			c6.051,0,10.533,1.401,13.452,4.202c2.914,2.806,4.371,6.729,4.371,11.775c0,3.812-1.148,6.866-3.445,9.162
			c-2.301,2.302-5.355,3.45-9.167,3.45c-0.897,0-1.766-0.029-2.605-0.087c-0.839-0.059-1.544-0.14-2.104-0.251
			c-0.786-0.111-1.457-0.28-2.017-0.507V236.914z"/>
		<path fill="#585868" d="M961.324,320.155c-4.039,0-7.6-0.449-10.678-1.341c-3.088-0.902-5.752-1.963-7.99-3.194
			c-2.581-1.351-4.767-2.914-6.562-4.709c-0.897,1.235-1.872,2.354-2.938,3.358c-1.066,1.013-2.051,1.795-2.943,2.354
			c-1.125,0.787-2.243,1.399-3.363,1.853h-4.207v-28.592h6.726c1.573,4.94,3.706,9.312,6.394,13.119
			c2.243,3.256,5.157,6.224,8.747,8.912c3.585,2.692,8.067,4.039,13.452,4.039c4.709,0,8.265-1.177,10.678-3.532
			c2.407-2.354,3.613-5.66,3.613-9.925c0-3.136-1.207-5.824-3.613-8.067c-2.413-2.244-5.409-4.371-8.999-6.393
			c-3.59-2.017-7.507-4.058-11.772-6.137c-4.261-2.07-8.183-4.396-11.772-6.981c-3.585-2.577-6.581-5.549-8.994-8.907
			c-2.412-3.367-3.618-7.459-3.618-12.279c0-3.136,0.646-6.08,1.939-8.83c1.284-2.746,3.359-5.153,6.219-7.23
			c2.861-2.072,6.528-3.701,11.016-4.875c4.482-1.178,9.862-1.766,16.145-1.766c3.362,0,6.445,0.477,9.249,1.428
			c2.803,0.953,5.216,2.048,7.232,3.278c2.354,1.347,4.478,2.859,6.387,4.543c0.898-1.232,1.877-2.325,2.944-3.281
			c1.062-0.95,2.046-1.766,2.943-2.439c1.119-0.67,2.238-1.286,3.363-1.848h4.203v28.59h-6.726c-1.68-4.825-3.754-9.139-6.225-12.95
			c-2.127-3.252-4.815-6.25-8.067-8.999c-3.252-2.745-7.232-4.12-11.941-4.12c-2.919,0-5.467,1.122-7.652,3.363
			c-2.186,2.246-3.275,5.047-3.275,8.41c0,3.363,1.201,6.277,3.613,8.748c2.408,2.461,5.409,4.762,8.999,6.89
			c3.584,2.132,7.507,4.207,11.772,6.224c4.255,2.016,8.178,4.284,11.768,6.813c3.585,2.519,6.586,5.38,8.998,8.574
			c2.408,3.194,3.614,7.04,3.614,11.517c0,3.59-0.671,6.871-2.017,9.843c-1.347,2.972-3.532,5.549-6.558,7.729
			c-3.029,2.191-7.01,3.87-11.941,5.047C974.549,319.566,968.498,320.155,961.324,320.155z"/>
		<path fill="#585868" d="M372.751,362.942l-9.249-1.68v-2.519h20.18c6.391,0,11.406,1.429,15.051,4.285
			c3.641,2.856,6.193,6.195,7.65,10.007l25.394,64.74l14.798-43.386l-12.444-31.448l-9.249-1.68v-2.519h20.18
			c6.391,0,11.377,1.429,14.967,4.285c3.587,2.856,6.163,6.195,7.737,10.007l25.391,64.74l24.216-71.467l-12.612-5.047v-2.519
			h31.111v2.519l-13.452,5.047L484.58,478.141h-5.044l-30.269-76.851L423.2,478.141h-5.044L372.751,362.942z"/>
		<path fill="#585868" d="M570.345,389.855c6.726,0,12.694,0.897,17.905,2.688c5.214,1.795,9.615,4.289,13.2,7.483
			c3.59,3.193,6.312,7.006,8.159,11.435c1.848,4.43,2.774,9.278,2.774,14.547v45.407l10.094,2.519v2.523h-15.141
			c-4.034,0-7.286-0.642-9.751-1.935c-2.465-1.283-4.429-2.717-5.886-4.286c-1.684-1.91-2.919-4.038-3.7-6.392
			c-1.458,2.919-3.306,5.438-5.549,7.57c-1.906,1.906-4.43,3.638-7.565,5.211c-3.142,1.568-6.895,2.354-11.271,2.354
			c-5.269,0-9.833-0.589-13.702-1.766c-3.87-1.178-7.093-2.799-9.669-4.878c-2.582-2.07-4.517-4.482-5.8-7.232
			c-1.293-2.742-1.939-5.685-1.939-8.83c0-2.576,0.279-4.96,0.845-7.141c0.56-2.19,1.229-4.12,2.017-5.805
			c0.897-2.021,1.905-3.869,3.024-5.553c4.71-1.12,9.698-2.124,14.967-3.021c4.487-0.787,9.529-1.544,15.141-2.277
			c5.602-0.724,11.262-1.197,16.984-1.429v-5.042c0-6.499-0.425-11.884-1.265-16.144s-2.046-7.624-3.614-10.088
			c-1.572-2.466-3.507-4.179-5.804-5.134c-2.296-0.946-4.902-1.429-7.816-1.429c-1.235,0-2.354,0.087-3.368,0.251
			c-1.003,0.174-1.9,0.367-2.688,0.589c-0.902,0.338-1.684,0.618-2.354,0.845v25.225c-0.786,0.227-1.51,0.391-2.186,0.506
			c-0.675,0.111-1.375,0.193-2.104,0.251c-0.729,0.059-1.544,0.082-2.437,0.082c-3.816,0-6.865-1.144-9.162-3.449
			c-2.302-2.292-3.45-5.347-3.45-9.163c0-2.35,0.589-4.627,1.766-6.808c1.178-2.19,3.025-4.149,5.548-5.887
			c2.524-1.736,5.747-3.135,9.669-4.207C560.14,390.386,564.849,389.855,570.345,389.855z M563.613,436.937
			c-0.67,1.457-1.235,3.141-1.679,5.047c-0.448,1.572-0.84,3.42-1.177,5.549c-0.338,2.132-0.502,4.486-0.502,7.063
			c0,6.726,1.033,11.492,3.107,14.291c2.075,2.807,4.4,4.207,6.982,4.207c2.576,0,4.791-0.699,6.644-2.104
			c1.847-1.399,3.387-2.943,4.622-4.622c1.457-2.017,2.745-4.261,3.87-6.726v-24.386c-2.582,0-5.163,0.082-7.739,0.251
			c-2.577,0.169-4.932,0.367-7.063,0.589C568.211,436.435,565.857,436.715,563.613,436.937z"/>
		<path fill="#585868" d="M640.132,383.969c0-10.094,5.042-15.141,15.136-15.141h11.772v23.546h23.54v4.207h-23.54v51.288
			c0,5.491,0.309,9.979,0.926,13.452c0.613,3.474,1.452,6.225,2.519,8.241c1.061,2.017,2.384,3.392,3.952,4.12
			c1.567,0.733,3.305,1.091,5.216,1.091c1.9,0,3.754-0.474,5.548-1.429c1.795-0.95,3.416-2.354,4.874-4.202
			c1.457-1.848,2.609-4.12,3.449-6.808c0.845-2.692,1.26-5.829,1.26-9.419h4.207c0,8.405-2.104,14.852-6.307,19.339
			c-4.202,4.478-9.669,6.726-16.399,6.726c-5.713,0-10.788-0.787-15.218-2.354c-4.429-1.573-8.212-3.754-11.348-6.562
			c-3.142-2.799-5.524-6.108-7.15-9.92c-1.621-3.813-2.437-7.903-2.437-12.275v-51.288h-11.769v-4.207h11.769V383.969z"/>
		<path fill="#585868" d="M757.004,393.213c-2.915,0-5.606,0.618-8.067,1.854c-2.471,1.235-4.604,3.392-6.394,6.475
			c-1.794,3.083-3.198,7.286-4.202,12.612c-1.013,5.327-1.515,12.082-1.515,20.265c0,7.961,0.502,14.542,1.515,19.758
			c1.004,5.216,2.408,9.336,4.202,12.356c1.79,3.03,3.923,5.162,6.394,6.393c2.461,1.235,5.152,1.849,8.067,1.849
			c3.368,0,6.533-0.613,9.505-1.849c2.967-1.231,5.549-2.885,7.734-4.96c2.186-2.074,3.922-4.429,5.211-7.063
			c1.288-2.629,1.935-5.298,1.935-7.985h4.207c0,3.358-0.763,6.61-2.272,9.751c-1.515,3.142-3.672,5.916-6.475,8.323
			c-2.804,2.413-6.167,4.348-10.089,5.8c-3.928,1.457-8.299,2.19-13.119,2.19c-14.354,0-25.504-3.956-33.461-11.859
			c-7.966-7.903-11.946-18.803-11.946-32.703c0-13.905,3.98-24.81,11.946-32.713c7.957-7.903,19.106-11.85,33.461-11.85
			c5.495,0,10.204,0.53,14.127,1.591c3.923,1.072,7.146,2.471,9.669,4.207c2.523,1.738,4.372,3.697,5.549,5.887
			c1.178,2.181,1.766,4.458,1.766,6.808c0,3.816-1.152,6.871-3.449,9.163c-2.297,2.306-5.355,3.449-9.162,3.449
			c-0.897,0-1.767-0.023-2.605-0.082c-0.845-0.058-1.544-0.14-2.104-0.251c-0.786-0.115-1.457-0.279-2.017-0.506v-25.225
			c-0.67-0.227-1.462-0.507-2.354-0.845c-0.786-0.222-1.684-0.415-2.688-0.589C759.359,393.3,758.239,393.213,757.004,393.213z"/>
		<path fill="#585868" d="M862.109,417.599c0-3.813-0.396-7.088-1.177-9.838c-0.786-2.746-1.766-5.014-2.943-6.809
			c-1.177-1.795-2.523-3.111-4.033-3.956c-1.516-0.84-3.001-1.26-4.459-1.26c-2.581,0-4.824,0.701-6.726,2.105
			c-1.91,1.403-3.479,2.942-4.709,4.627c-1.457,2.017-2.692,4.255-3.701,6.726v62.222l10.09,2.519v2.523h-47.087v-2.523
			l10.089-2.519V363.786l-10.089-2.523v-2.519h21.862c10.094,0,15.135,5.042,15.135,15.131v26.908
			c1.453-2.021,3.194-3.812,5.216-5.38c1.79-1.35,4.063-2.609,6.809-3.782c2.745-1.177,6.026-1.766,9.838-1.766
			c4.819,0,9.249,0.781,13.287,2.354c4.034,1.568,7.479,3.638,10.34,6.219c2.861,2.582,5.101,5.524,6.727,8.825
			c1.626,3.31,2.437,6.76,2.437,10.345v53.816l10.094,2.519v2.523H877.24c-10.084,0-15.131-5.042-15.131-15.136V417.599z"/>
	</g>
	<g>
		<path fill="#D3CEB7" d="M158.828,0C71.104,0,0,71.106,0,158.821c0,87.716,71.104,158.825,158.828,158.825
			c87.709,0,158.813-71.109,158.813-158.825C317.641,71.106,246.537,0,158.828,0z M158.828,279.688
			c-66.754,0-120.865-54.108-120.865-120.868c0-66.74,54.111-120.856,120.865-120.856c66.745,0,120.861,54.116,120.861,120.856
			C279.688,225.58,225.573,279.688,158.828,279.688z"/>
		<g>
			<path fill="#D3CEB7" d="M158.821,161.86c-0.777,0-1.549-0.299-2.143-0.893c-1.187-1.18-1.187-3.098,0-4.285l142.433-142.43
				c1.18-1.185,3.098-1.185,4.282,0c1.182,1.184,1.182,3.1,0,4.284L160.963,160.968C160.37,161.561,159.598,161.86,158.821,161.86z"
				/>
		</g>
	</g>
</g>
</svg>
