<?xml version="1.0" encoding="utf-8"?>
<!-- Generator: Adobe Illustrator 15.1.0, SVG Export Plug-In . SVG Version: 6.00 Build 0)  -->
<!DOCTYPE svg PUBLIC "-//W3C//DTD SVG 1.1//EN" "http://www.w3.org/Graphics/SVG/1.1/DTD/svg11.dtd">
<svg version="1.1" id="Layer_2" xmlns="http://www.w3.org/2000/svg" xmlns:xlink="http://www.w3.org/1999/xlink" x="0px" y="0px"
	 width="1000px" height="872.731px" viewBox="0 0 1000 872.731" enable-background="new 0 0 1000 872.731" xml:space="preserve">
<g>
	<path fill="#585868" d="M761.97,110.563l68.737-68.732c2.702-2.702,2.702-7.073,0-9.767c-2.689-2.694-7.059-2.694-9.758,0
		l-68.737,68.738C687.166,38.177,598.805-0.401,501.383-0.401c-199.818,0-361.809,161.981-361.809,361.789
		c0,199.823,161.99,361.828,361.809,361.828c199.808,0,361.784-162.005,361.784-361.828
		C863.167,263.97,824.592,175.618,761.97,110.563z M501.383,636.731c-152.064,0-275.326-123.261-275.326-275.344
		c0-152.035,123.262-275.313,275.326-275.313c73.536,0,140.293,28.897,189.68,75.879L496.486,356.529
		c-2.695,2.687-2.695,7.054,0,9.75c1.352,1.356,3.115,2.025,4.884,2.025s3.533-0.669,4.884-2.025l194.572-194.563
		c46.986,49.383,75.885,116.134,75.885,189.672C776.711,513.47,653.42,636.731,501.383,636.731z"/>
	<path fill="#E2E2E2" d="M1000.422,847.048c0,13.075-223.493,23.673-499.193,23.673c-275.701,0-499.192-10.599-499.192-23.673
		c0-13.075,223.491-23.674,499.192-23.674C776.93,823.375,1000.422,833.973,1000.422,847.048z"/>
</g>
</svg>
