<?xml version="1.0" encoding="utf-8"?>
<!-- Generator: Adobe Illustrator 15.1.0, SVG Export Plug-In . SVG Version: 6.00 Build 0)  -->
<!DOCTYPE svg PUBLIC "-//W3C//DTD SVG 1.1//EN" "http://www.w3.org/Graphics/SVG/1.1/DTD/svg11.dtd">
<svg version="1.1" id="Layer_2" xmlns="http://www.w3.org/2000/svg" xmlns:xlink="http://www.w3.org/1999/xlink" x="0px" y="0px"
	 width="1000px" height="873.217px" viewBox="0 0 1000 873.217" enable-background="new 0 0 1000 873.217" xml:space="preserve">
<g>
	<g>
		<path fill="#585868" d="M324.318,360.725c-4.765,0.705-9.6,1.379-14.557,1.379c-54.752,0-99.3-44.447-99.3-99.201
			c0-54.754,44.548-99.251,99.3-99.251c8.464,0,16.641,1.203,24.488,3.205c2.441-9.708,5.778-19.049,9.87-27.986
			c-10.957-3.037-22.446-4.782-34.358-4.782c-71.078,0-128.908,57.825-128.908,128.906c0,44.398,22.575,83.626,56.833,106.816
			C180.708,386.344,138,436.496,138,493.94v142.277h29V493.94c0-53.637,51.925-99.723,111.12-99.723h26.106
			C309.396,381.217,316.172,371.048,324.318,360.725z"/>
		<g>
			<path fill="#585868" d="M710.523,328.122c-16.362,0-29.678-13.311-29.678-29.677c0-16.37,13.315-29.681,29.678-29.681
				c16.361,0,29.673,13.311,29.673,29.681C740.196,314.811,726.885,328.122,710.523,328.122z M710.523,277.222
				c-11.698,0-21.219,9.522-21.219,21.222c0,11.696,9.521,21.22,21.219,21.22c11.697,0,21.213-9.524,21.213-21.22
				C731.736,286.745,722.221,277.222,710.523,277.222z"/>
		</g>
		<g>
			<path fill="#585868" d="M270.602,328.122c-16.362,0-29.677-13.311-29.677-29.677c0-16.37,13.314-29.681,29.677-29.681
				c16.363,0,29.674,13.311,29.674,29.681C300.275,314.811,286.965,328.122,270.602,328.122z M270.602,277.222
				c-11.698,0-21.217,9.522-21.217,21.222c0,11.696,9.519,21.22,21.217,21.22s21.214-9.524,21.214-21.22
				C291.815,286.745,282.3,277.222,270.602,277.222z"/>
		</g>
		<path fill="#585868" d="M759.058,366.091c31.4-23.535,52.07-60.918,52.07-103.093c0-71.081-57.716-128.905-128.794-128.905
			c-13.964,0-27.33,2.302-39.928,6.429c3.977,8.942,7.202,18.311,9.533,28.014c9.615-3.113,19.857-4.835,30.493-4.835
			c54.751,0,99.3,44.543,99.3,99.298s-44.538,99.298-99.291,99.298c-6.084,0-12.018-1.019-17.803-2.068
			c7.911,10.428,14.444,20.988,19.396,33.988h52.323c54.813,0,96.643,42.388,96.643,99.723v142.277h28V493.94
			C861,426.943,819.558,376.407,759.058,366.091z"/>
		<path fill="#585868" d="M574.055,324.122c36.932-25.969,61.699-68.873,61.699-117.352c0-79.074-64.043-143.408-143.117-143.408
			c-79.076,0-143.267,64.334-143.267,143.408c0,49.087,24.264,92.483,61.984,118.344C353.389,339.955,310,390.985,310,451.519
			v209.698h31V451.519c0-55.053,48.093-101.302,105.778-101.302h98.646c56.962,0,100.576,44.382,100.576,101.302v209.698h28V451.519
			C674,388.466,632.604,337.271,574.055,324.122z M379.122,206.77c0-62.75,51.049-113.8,113.798-113.8
			c62.746,0,113.794,51.05,113.794,113.8c0,62.749-51.048,113.8-113.794,113.8C430.171,320.57,379.122,269.519,379.122,206.77z"/>
		<g>
			<path fill="#585868" d="M537.093,277.355c-16.362,0-29.677-13.311-29.677-29.672c0-16.364,13.314-29.674,29.677-29.674
				s29.674,13.31,29.674,29.674C566.767,264.044,553.455,277.355,537.093,277.355z M537.093,226.468
				c-11.699,0-21.218,9.516-21.218,21.215c0,11.697,9.519,21.213,21.218,21.213c11.697,0,21.213-9.516,21.213-21.213
				C558.306,235.984,548.79,226.468,537.093,226.468z"/>
		</g>
	</g>
	<path fill="#E2E2E2" d="M999.192,847.45c0,13.075-223.492,23.673-499.192,23.673c-275.701,0-499.192-10.599-499.192-23.673
		c0-13.075,223.491-23.674,499.192-23.674C775.7,823.776,999.192,834.375,999.192,847.45z"/>
</g>
</svg>
