<?xml version="1.0" encoding="utf-8"?>
<!-- Generator: Adobe Illustrator 15.1.0, SVG Export Plug-In . SVG Version: 6.00 Build 0)  -->
<!DOCTYPE svg PUBLIC "-//W3C//DTD SVG 1.1//EN" "http://www.w3.org/Graphics/SVG/1.1/DTD/svg11.dtd">
<svg version="1.1" id="Layer_2" xmlns="http://www.w3.org/2000/svg" xmlns:xlink="http://www.w3.org/1999/xlink" x="0px" y="0px"
	 width="1000px" height="873.217px" viewBox="0 0 1000 873.217" enable-background="new 0 0 1000 873.217" xml:space="preserve">
<g>
	<g>
		<g>
			<polygon fill="#585868" points="495.619,573.411 381.301,494.626 386.42,487.195 493,560.643 636.48,333.599 644.115,338.423 			
				"/>
		</g>
		<path fill="#585868" d="M812,92.851c0-9.117-5.053-15.634-14.17-15.634H714V16.911c0-9.119-7.381-16.509-16.5-16.509
			S681,7.792,681,16.911v60.306H325V16.911c0-9.119-7.883-16.509-16.998-16.509c-9.121,0-17.002,7.39-17.002,16.509v60.306h-87.492
			c-9.121,0-16.508,6.517-16.508,15.634v614.134c0,9.118,7.387,17.231,16.508,17.231H797.83c9.117,0,14.17-8.114,14.17-17.231
			V92.851z M291,110.217v32.163c0,9.119,7.881,16.508,17.002,16.508c9.115,0,16.998-7.389,16.998-16.508v-32.163h356v32.163
			c0,9.119,7.381,16.508,16.5,16.508s16.5-7.389,16.5-16.508v-32.163h65v104H219v-104H291z M219,689.217v-441h560v441H219z"/>
	</g>
	<path fill="#E2E2E2" d="M999.191,847.45c0,13.075-223.49,23.673-499.191,23.673S0.808,860.524,0.808,847.45
		c0-13.075,223.491-23.674,499.192-23.674S999.191,834.375,999.191,847.45z"/>
</g>
</svg>
