<?xml version="1.0" encoding="utf-8"?>
<!-- Generator: Adobe Illustrator 15.1.0, SVG Export Plug-In . SVG Version: 6.00 Build 0)  -->
<!DOCTYPE svg PUBLIC "-//W3C//DTD SVG 1.1//EN" "http://www.w3.org/Graphics/SVG/1.1/DTD/svg11.dtd">
<svg version="1.1" id="Layer_2" xmlns="http://www.w3.org/2000/svg" xmlns:xlink="http://www.w3.org/1999/xlink" x="0px" y="0px"
	 width="1000px" height="873.217px" viewBox="0 0 1000 873.217" enable-background="new 0 0 1000 873.217" xml:space="preserve">
<g>
	<g>
		<path fill="#585868" d="M557.615,723.217c-0.09,0-0.174,0-0.263,0l-125.644-3.947c-9.284-0.146-16.692-8.786-16.548-18.074
			l0.737-48.009c-9.828-2.805-19.53-6.353-29.021-10.138l-28.567,37.982c-2.674,3.559-6.658,5.861-11.071,6.491
			c-4.418,0.631-8.901-0.541-12.466-3.222l-100.534-75.393c-7.432-5.57-8.939-16.113-3.369-23.548l28.553-38.093
			c-6.33-8.078-12.263-16.485-17.755-25.162l-45.55,14.042c-8.874,2.752-18.289-2.232-21.024-11.113l-37.032-120.06
			c-2.734-8.882,2.24-18.292,11.114-21.025l45.546-14.05c-0.125-3.612-0.19-7.231-0.19-10.824c0-6.627,0.217-13.293,0.647-19.948
			l-45.229-15.441c-4.22-1.445-7.693-4.505-9.657-8.506c-1.968-4.007-2.259-8.625-0.817-12.847l40.623-118.904
			c1.441-4.218,4.503-7.691,8.506-9.656c4.008-1.957,8.625-2.252,12.845-0.815l45.176,15.442
			c5.732-8.499,11.867-16.688,18.358-24.498l-27.634-39.193c-2.571-3.645-3.588-8.158-2.826-12.551
			c0.758-4.394,3.235-8.308,6.881-10.876l102.589-72.33c3.654-2.581,8.198-3.593,12.592-2.818c4.408,0.768,8.324,3.265,10.885,6.937
			l26.86,39.139C402.566,69.325,411,66.797,418,64.655V19.249c0-9.288,8.435-16.032,17.721-16.032h134.52
			c9.287,0,16.76,6.744,16.76,16.032v45.715c8,2.458,16.304,5.293,24.831,8.533l24.642-37.866c2.516-3.862,6.517-6.53,11.051-7.364
			c4.513-0.86,9.214,0.217,12.944,2.937l101.606,73.924c7.512,5.465,9.17,15.98,3.705,23.487l-28.235,38.812
			c6.824,8.46,13.209,17.295,19.106,26.438l45.82-14.51c4.25-1.353,8.865-0.958,12.823,1.105c3.958,2.05,6.94,5.595,8.285,9.845
			l37.944,119.784c2.805,8.853-2.097,18.3-10.949,21.104l-45.689,14.481c0.195,4.474,0.293,8.954,0.293,13.4
			c0,5.727-0.159,11.481-0.483,17.216l45.538,15.173c8.809,2.935,13.57,12.458,10.638,21.267L821.15,531.95
			c-1.411,4.229-4.444,7.729-8.434,9.726c-3.989,1.991-8.607,2.313-12.837,0.914l-45.324-15.107
			c-5.265,7.941-10.906,15.651-16.89,23.073l28.114,38.74c5.456,7.52,3.783,18.036-3.733,23.487l-101.695,73.8
			c-3.609,2.621-8.111,3.731-12.516,2.995c-4.404-0.697-8.351-3.12-10.969-6.731l-27.951-38.523
			c-11.027,4.217-22.31,7.791-33.741,10.692l-0.749,47.686c-0.067,4.459-1.907,10.693-5.109,13.794
			C566.178,719.544,561.979,723.217,557.615,723.217z M449.046,683.917l92.021,1.444l0.69-44.032
			c0.121-7.875,5.697-14.615,13.407-16.203c18.113-3.744,35.915-9.385,52.911-16.775c7.241-3.127,15.678-0.828,20.312,5.55
			l25.822,35.587l74.479-54.043l-25.967-35.784c-4.627-6.371-4.208-15.101,0.997-20.998c10.918-12.382,20.758-25.827,29.244-39.954
			c4.054-6.759,12.243-9.801,19.732-7.298l41.865,13.958l29.087-87.319l-42.054-14.01c-7.457-2.489-12.199-9.812-11.412-17.635
			c0.906-9.024,1.366-18.22,1.366-27.33c0-7.961-0.354-16.026-1.052-23.98c-0.688-7.849,4.163-15.12,11.67-17.498l42.222-13.378
			l-27.792-87.726l-42.315,13.399c-7.491,2.385-15.631-0.762-19.597-7.546c-8.936-15.304-19.398-29.774-31.093-43.017
			c-5.222-5.911-5.633-14.653-0.995-21.023l26.101-35.875l-73.681-53.61l-22.522,34.626c-4.477,6.879-13.254,9.531-20.787,6.261
			c-15.719-6.825-33.689-12.23-46.97-16.178C557.603,91.407,552,84.852,552,77.411V37.217H452v40.221
			c0,7.579-4.803,14.219-12.113,16.216c-12.17,3.33-30.429,8.362-45.061,14.45c-7.301,3.041-15.658,0.579-20.187-5.899
			l-25.112-36.032l-75.022,52.901l25.55,36.223c4.545,6.444,4.002,15.179-1.307,21.011c-11.402,12.52-21.756,26.325-30.777,41.045
			c-4.11,6.707-12.31,9.702-19.771,7.121l-41.718-14.259l-29.746,87.08l41.759,14.26c7.445,2.549,12.132,9.912,11.282,17.733
			c-1.071,9.852-1.616,19.875-1.616,29.787c0,7.212,0.289,14.502,0.86,21.676c0.624,7.849-4.282,15.08-11.806,17.398l-42.06,12.979
			l27.121,87.929l42.045-12.96c7.524-2.312,15.637,0.88,19.547,7.712c8.529,14.889,18.512,29.031,29.675,42.043
			c5.137,5.983,5.425,14.726,0.697,21.038l-26.379,35.179l73.63,55.206l26.381-35.186c4.724-6.299,13.192-8.467,20.37-5.234
			c15.577,7.034,31.913,12.604,48.558,16.552c7.674,1.825,13.054,8.735,12.928,16.623L449.046,683.917z"/>
	</g>
	<g>
		<path fill="#585868" d="M499.664,536.416c-97.528,0-176.876-79.344-176.876-176.875c0-97.531,79.348-176.882,176.876-176.882
			s176.875,79.351,176.875,176.882C676.539,457.071,597.192,536.416,499.664,536.416z M499.664,191.855
			c-92.457,0-167.68,75.225-167.68,167.686c0,92.46,75.223,167.68,167.68,167.68c92.456,0,167.68-75.219,167.68-167.68
			C667.344,267.08,592.12,191.855,499.664,191.855z"/>
	</g>
	<g>
		<path fill="#585868" d="M499.664,462.766c-56.923,0-103.234-46.305-103.234-103.232s46.312-103.233,103.234-103.233
			c56.92,0,103.23,46.306,103.23,103.233S556.584,462.766,499.664,462.766z M499.664,288.485c-39.177,0-71.049,31.876-71.049,71.049
			c0,39.174,31.872,71.048,71.049,71.048c39.172,0,71.042-31.875,71.042-71.048C570.706,320.361,538.836,288.485,499.664,288.485z"
			/>
	</g>
	<path fill="#E2E2E2" d="M999.192,847.45c0,13.075-223.493,23.673-499.192,23.673c-275.701,0-499.192-10.599-499.192-23.673
		c0-13.075,223.491-23.674,499.192-23.674C775.699,823.776,999.192,834.375,999.192,847.45z"/>
</g>
</svg>
